<svg id="Layer_1" data-name="Layer 1" xmlns="http://www.w3.org/2000/svg" viewBox="0 0 1000 1000"><defs><style>.cls-1{fill:#32458e;}.cls-2{fill:#f3c841;}</style></defs><path class="cls-1" d="M438.47,280.26,501,342.79l-50,50V509.5a50,50,0,0,1-100,0v-192a49.87,49.87,0,0,1,17.67-38.13h0A50,50,0,0,1,438.47,280.26Z"/><path class="cls-2" d="M651,317.5v192a50,50,0,0,1-100,0V392.79l-50-50,62.53-62.53a50,50,0,0,1,69.79-.9h0A49.87,49.87,0,0,1,651,317.5Z"/><path class="cls-1" d="M795,594.61V720.05a32.67,32.67,0,0,1-65.33,0V644.84a50,50,0,0,1-65.34,0v75.21a32.67,32.67,0,0,1-65.33,0V594.61a32.57,32.57,0,0,1,11.54-24.91h0a32.67,32.67,0,0,1,45.6.59l3.5,3.5L697,611.13l37.35-37.35,3.5-3.5a32.67,32.67,0,0,1,45.6-.59h0A32.57,32.57,0,0,1,795,594.61Z"/><path class="cls-1" d="M325.59,697l.13-.13L308,679.1a65.35,65.35,0,0,0-54.88-117.22,32.68,32.68,0,0,0-45.77,25.21,32.92,32.92,0,0,0-.32,4.58V722.33a32.67,32.67,0,0,0,63.26,11.46l9.26,9.26.12-.12A32.67,32.67,0,1,0,325.59,697Zm-43.46-40a32.67,32.67,0,1,1,32.67-32.67A32.67,32.67,0,0,1,282.13,657Z"/><path class="cls-1" d="M403,624.33a65.34,65.34,0,1,0,65.33,65.34A65.33,65.33,0,0,0,403,624.33Zm0,98a32.67,32.67,0,1,1,32.67-32.66A32.67,32.67,0,0,1,403,722.33Z"/><path class="cls-1" d="M533.67,624.33A65.34,65.34,0,1,0,599,689.67,65.34,65.34,0,0,0,533.67,624.33Zm0,98a32.67,32.67,0,1,1,32.66-32.66A32.67,32.67,0,0,1,533.67,722.33Z"/><path class="cls-1" d="M207.32,587.09a32.92,32.92,0,0,0-.32,4.58v-4.58Z"/></svg>